<?xml version="1.0" encoding="UTF-8"?>
<svg xmlns="http://www.w3.org/2000/svg" xmlns:xlink="http://www.w3.org/1999/xlink" width="128px" height="128px" viewBox="0 0 128 128" version="1.1">
<g id="surface1">
<path style=" stroke:none;fill-rule:nonzero;fill:rgb(95.686275%,26.274511%,21.176471%);fill-opacity:1;" d="M 70.03125 7.679688 C 66.699219 4.351562 61.300781 4.351562 57.96875 7.679688 L 1.25 64.386719 C -0.417969 66.054688 -0.417969 68.761719 1.25 70.425781 C 2.917969 72.09375 5.621094 72.09375 7.289062 70.425781 L 12.800781 64.90625 L 12.800781 110.070312 C 12.800781 117.136719 18.53125 122.871094 25.601562 122.871094 L 102.394531 122.871094 C 109.460938 122.871094 115.195312 117.140625 115.195312 110.070312 L 115.195312 64.90625 L 120.707031 70.425781 C 122.375 72.09375 125.078125 72.09375 126.746094 70.425781 C 128.414062 68.761719 128.414062 66.054688 126.746094 64.386719 L 106.664062 44.308594 L 106.664062 16.210938 C 106.664062 13.859375 104.753906 11.945312 102.394531 11.945312 L 93.863281 11.945312 C 91.507812 11.945312 89.59375 13.855469 89.59375 16.210938 L 89.59375 27.246094 Z M 106.664062 56.375 L 106.664062 110.070312 C 106.664062 112.425781 104.753906 114.335938 102.394531 114.335938 L 25.601562 114.335938 C 23.246094 114.335938 21.335938 112.425781 21.335938 110.070312 L 21.335938 56.375 L 64 13.710938 Z M 106.664062 56.375 "/>
</g>
</svg>
